<?xml version="1.0" encoding="UTF-8"?>
<!-- Created with Inkscape (http://www.inkscape.org/) -->
<svg width="120" height="120" version="1.1" viewBox="1 -1 30 33" xmlns="http://www.w3.org/2000/svg" xmlns:xlink="http://www.w3.org/1999/xlink">
 <defs>
  <linearGradient id="icon_b8a8e61f_paint0_linear_10661_63214" x1="34.3" x2="107" y1="27.9" y2="130" gradientUnits="userSpaceOnUse">
   <stop stop-color="#FFE033" offset="0"/>
   <stop stop-color="#fc0" offset="1"/>
  </linearGradient>
  <linearGradient id="linearGradient1230" x1="34.3" x2="107" y1="27.9" y2="130" gradientUnits="userSpaceOnUse" xlink:href="#icon_b8a8e61f_paint0_linear_10661_63214"/>
 </defs>
 <g transform="matrix(.572 0 0 .572 50.2 -.0243)">
  <g transform="translate(-11.5)">
   <symbol id="icon_b8a8e61f" viewBox="0 0 140 140">
    <path d="m40 0h60c22.2 0 40 17.8 40 40v60c0 22.2-17.8 40-40 40h-60c-22.2 0-40-17.8-40-40v-60c0-22.2 17.8-40 40-40z"/>
    <path d="m130 70c0-33.1-26.9-60-60-60s-60 26.9-60 60 26.9 60 60 60 60-26.9 60-60z" fill="url(#linearGradient1230)"/>
    <path d="m70 98.1c-14.4-0.0014-27.3-9.35-32.5-21.9l-0.0075 0.0023c-0.282-0.904-1.13-1.56-2.14-1.56-1.24 0-2.24 0.991-2.24 2.21 0 0.0843 0.0048 0.168 0.0141 0.249l-0.0141 0.0015c0.0154 0.44 0.105 0.868 0.245 1.21 6.11 15.1 19.1 28.6 36.7 28.6zm0 0c14.4-0.0014 27.3-9.35 32.5-21.9l7e-3 0.0023c0.282-0.904 1.13-1.56 2.14-1.56 1.24 0 2.24 0.991 2.24 2.21 0 0.0843-4e-3 0.167-0.014 0.249l0.014 0.0015c-0.015 0.44-0.105 0.868-0.245 1.21-6.11 15.1-19.1 28.6-36.7 28.6zm-11.9-47.5c0 5.82-2.35 10.5-6.18 10.5-3.89 0.0032-6.18-4.72-6.18-10.5s2.29-10.5 6.18-10.5c3.83 0.0033 6.18 4.72 6.18 10.5zm36 0c0 5.82-2.35 10.5-6.18 10.5-3.89 0.0032-6.18-4.72-6.18-10.5s2.29-10.5 6.18-10.5c3.83 0.0033 6.18 4.72 6.18 10.5z"/>
   </symbol>
   <g transform="matrix(.397 0 0 .397 -76.3 0)">
    <path d="m40 0h60c22.2 0 40 17.8 40 40v60c0 22.2-17.8 40-40 40h-60c-22.2 0-40-17.8-40-40v-60c0-22.2 17.8-40 40-40z"/>
    <path d="m130 70c0-33.1-26.9-60-60-60s-60 26.9-60 60 26.9 60 60 60 60-26.9 60-60z" fill="url(#linearGradient1230)"/>
    <path transform="matrix(.667 0 0 .667 5.04e-6 0)" d="m77.9 60c-5.84 0-9.27 7.07-9.27 15.8s3.43 15.8 9.27 15.8c5.75-0.0049 9.27-7.07 9.27-15.8 0-8.72-3.53-15.8-9.27-15.8zm53.9 0c-5.84 0-9.27 7.07-9.27 15.8s3.43 15.8 9.27 15.8c5.75-0.0049 9.27-7.07 9.27-15.8 0-8.72-3.53-15.8-9.27-15.8zm-78.9 51.9c-1.85 0-3.36 1.49-3.36 3.32 0 0.126 0.0075 0.25 0.0215 0.373l-0.0215 2e-3c0.0231 0.66 0.158 1.3 0.367 1.82 9.16 22.6 28.7 42.9 55 43 26.3-3e-3 45.9-20.4 55-43 0.21-0.514 0.345-1.16 0.367-1.82l-0.0215-2e-3c0.015-0.123 0.0215-0.247 0.0215-0.373 0-1.83-1.5-3.32-3.36-3.32-1.51-1e-5 -2.79 0.986-3.21 2.34l-0.01-4e-3c-7.89 18.8-27.1 32.8-48.8 32.8-21.7-2e-3 -40.9-14-48.8-32.8l-0.0098 4e-3c-0.422-1.36-1.7-2.34-3.21-2.34z" stroke-width="1.5"/>
   </g>
  </g>
  <g transform="matrix(.738 0 0 .738 -30.7 7.66)">
   <symbol viewBox="0 0 80 26">
    <path d="m3.56 5.38a2.64 2.64 0 0 1-2.66-2.66c0-1.48 1.18-2.69 2.66-2.69a2.69 2.69 0 0 1 2.69 2.69c0 1.48-1.2 2.66-2.69 2.66zm-2.35 14.6v-13.5h4.73v13.5zm7.25 0v-18.7h11.8v4.51h-6.5v2.46h6.3v4.51h-6.3v7.2zm21.6 0v-1.54c-0.672 0.924-2.16 1.88-4 1.88-2.72 0-3.84-1.6-3.84-3.7v-10.2h4.73v8.2c0 1.04 0.476 1.48 1.37 1.48 0.868 0 1.4-0.616 1.74-1.18v-8.51h4.73v13.5zm15 0v-8.18c0-1.06-0.504-1.51-1.37-1.51-0.896 0-1.43 0.644-1.74 1.18v8.51h-4.73v-13.5h4.73v1.57c0.644-0.924 2.16-1.9 4-1.9 2.72 0 3.84 1.62 3.84 3.72v10.1zm15 0v-8.18c0-1.06-0.504-1.51-1.37-1.51-0.896 0-1.43 0.644-1.74 1.18v8.51h-4.73v-13.5h4.73v1.57c0.644-0.924 2.16-1.9 4-1.9 2.72 0 3.84 1.62 3.84 3.72v10.1zm7.9 1.12c0.224 0.14 0.56 0.196 0.868 0.196 0.7 0 1.2-0.168 1.37-0.588l0.168-0.476-4.68-13.8h5.01l2.07 7.84 2.13-7.84h4.98l-5.18 15.3c-1.04 3.05-2.83 3.72-5.52 3.75-0.42 0-1.48-0.084-1.9-0.224z" fill="#fc0" fill-rule="evenodd"/>
   </symbol>
  </g>
 </g>
</svg>
